<svg id="visual" viewBox="0 0 900 600" width="900" height="600" xmlns="http://www.w3.org/2000/svg" xmlns:xlink="http://www.w3.org/1999/xlink" version="1.1"><rect x="0" y="0" width="900" height="600" fill="#ffffff"></rect><defs><linearGradient id="grad1_0" x1="33.3%" y1="0%" x2="100%" y2="100%"><stop offset="20%" stop-color="#ffffff" stop-opacity="1"></stop><stop offset="80%" stop-color="#ffffff" stop-opacity="1"></stop></linearGradient></defs><defs><linearGradient id="grad2_0" x1="0%" y1="0%" x2="66.7%" y2="100%"><stop offset="20%" stop-color="#ffffff" stop-opacity="1"></stop><stop offset="80%" stop-color="#ffffff" stop-opacity="1"></stop></linearGradient></defs><g transform="translate(900, 0)"><path d="M0 486.7C-64.7 481.4 -129.4 476.1 -186.3 449.7C-243.1 423.3 -292.1 376 -325.3 325.3C-358.4 274.6 -375.8 220.5 -400 165.7C-424.3 110.9 -455.5 55.5 -486.7 0L0 0Z" fill="#fff3f6"></path></g><g transform="translate(0, 600)"><path d="M0 -486.7C56.5 -464.2 113 -441.7 174.9 -422.2C236.8 -402.7 304 -386.3 344.2 -344.2C384.3 -302.1 397.4 -234.2 416.7 -172.6C435.9 -110.9 461.3 -55.5 486.7 0L0 0Z" fill="#fff3f6"></path></g></svg>