<svg id="visual" viewBox="0 0 900 600" width="900" height="600" xmlns="http://www.w3.org/2000/svg" xmlns:xlink="http://www.w3.org/1999/xlink" version="1.1"><g stroke-width="1" stroke-linejoin="bevel"><path d="M462 284L386 292L484 376Z" fill="#062c30" stroke="#062c30"></path><path d="M386 292L395 398L484 376Z" fill="#001618" stroke="#001618"></path><path d="M386 292L309 366L395 398Z" fill="#062c30" stroke="#062c30"></path><path d="M539 489L583 360L484 376Z" fill="#032226" stroke="#032226"></path><path d="M484 376L583 360L462 284Z" fill="#000d11" stroke="#000d11"></path><path d="M597 301L519 210L462 284Z" fill="#021f22" stroke="#021f22"></path><path d="M462 284L402 167L386 292Z" fill="#032226" stroke="#032226"></path><path d="M402 167L286 263L386 292Z" fill="#062c30" stroke="#062c30"></path><path d="M386 292L286 263L309 366Z" fill="#001618" stroke="#001618"></path><path d="M583 360L597 301L462 284Z" fill="#05292d" stroke="#05292d"></path><path d="M519 210L402 167L462 284Z" fill="#062c30" stroke="#062c30"></path><path d="M281 524L389 514L395 398Z" fill="#062c30" stroke="#062c30"></path><path d="M395 398L539 489L484 376Z" fill="#001c1f" stroke="#001c1f"></path><path d="M389 514L539 489L395 398Z" fill="#032226" stroke="#032226"></path><path d="M597 301L580 211L519 210Z" fill="#000d11" stroke="#000d11"></path><path d="M519 210L460 135L402 167Z" fill="#001618" stroke="#001618"></path><path d="M402 167L266 220L286 263Z" fill="#000d11" stroke="#000d11"></path><path d="M185 337L207 388L309 366Z" fill="#00191c" stroke="#00191c"></path><path d="M561 85L460 135L519 210Z" fill="#032226" stroke="#032226"></path><path d="M402 167L239 168L266 220Z" fill="#000000" stroke="#000000"></path><path d="M460 135L402 118L402 167Z" fill="#062c30" stroke="#062c30"></path><path d="M617 600L608 480L539 489Z" fill="#042529" stroke="#042529"></path><path d="M539 489L608 480L583 360Z" fill="#000d11" stroke="#000d11"></path><path d="M583 360L684 408L597 301Z" fill="#05292d" stroke="#05292d"></path><path d="M185 337L309 366L286 263Z" fill="#062c30" stroke="#062c30"></path><path d="M309 366L281 524L395 398Z" fill="#000d11" stroke="#000d11"></path><path d="M218 477L281 524L309 366Z" fill="#001618" stroke="#001618"></path><path d="M266 220L185 337L286 263Z" fill="#062c30" stroke="#062c30"></path><path d="M100 484L218 477L207 388Z" fill="#001215" stroke="#001215"></path><path d="M207 388L218 477L309 366Z" fill="#021f22" stroke="#021f22"></path><path d="M315 74L239 168L402 167Z" fill="#021f22" stroke="#021f22"></path><path d="M266 220L239 168L185 337Z" fill="#05292d" stroke="#05292d"></path><path d="M608 480L684 408L583 360Z" fill="#001215" stroke="#001215"></path><path d="M597 301L715 262L580 211Z" fill="#00191c" stroke="#00191c"></path><path d="M266 600L364 600L281 524Z" fill="#00191c" stroke="#00191c"></path><path d="M281 524L364 600L389 514Z" fill="#001215" stroke="#001215"></path><path d="M389 514L530 600L539 489Z" fill="#001618" stroke="#001618"></path><path d="M364 600L530 600L389 514Z" fill="#001c1f" stroke="#001c1f"></path><path d="M608 480L718 532L684 408Z" fill="#05292d" stroke="#05292d"></path><path d="M694 112L561 85L580 211Z" fill="#000d11" stroke="#000d11"></path><path d="M580 211L561 85L519 210Z" fill="#00191c" stroke="#00191c"></path><path d="M460 135L421 0L402 118Z" fill="#001618" stroke="#001618"></path><path d="M402 118L315 74L402 167Z" fill="#032226" stroke="#032226"></path><path d="M421 0L315 74L402 118Z" fill="#042529" stroke="#042529"></path><path d="M684 408L715 262L597 301Z" fill="#021f22" stroke="#021f22"></path><path d="M161 600L266 600L281 524Z" fill="#00191c" stroke="#00191c"></path><path d="M185 337L117 362L207 388Z" fill="#042529" stroke="#042529"></path><path d="M218 477L161 600L281 524Z" fill="#000000" stroke="#000000"></path><path d="M66 296L117 362L185 337Z" fill="#021f22" stroke="#021f22"></path><path d="M530 600L617 600L539 489Z" fill="#000000" stroke="#000000"></path><path d="M715 262L714 168L580 211Z" fill="#032226" stroke="#032226"></path><path d="M684 408L765 318L715 262Z" fill="#032226" stroke="#032226"></path><path d="M715 262L774 232L714 168Z" fill="#021f22" stroke="#021f22"></path><path d="M792 392L765 318L684 408Z" fill="#001618" stroke="#001618"></path><path d="M535 0L460 135L561 85Z" fill="#001215" stroke="#001215"></path><path d="M535 0L421 0L460 135Z" fill="#062c30" stroke="#062c30"></path><path d="M315 74L215 69L239 168Z" fill="#021f22" stroke="#021f22"></path><path d="M239 168L64 232L185 337Z" fill="#001c1f" stroke="#001c1f"></path><path d="M329 0L215 69L315 74Z" fill="#05292d" stroke="#05292d"></path><path d="M617 600L718 532L608 480Z" fill="#021f22" stroke="#021f22"></path><path d="M714 168L694 112L580 211Z" fill="#001215" stroke="#001215"></path><path d="M421 0L329 0L315 74Z" fill="#001618" stroke="#001618"></path><path d="M578 0L535 0L561 85Z" fill="#001215" stroke="#001215"></path><path d="M117 362L100 484L207 388Z" fill="#032226" stroke="#032226"></path><path d="M215 69L134 134L239 168Z" fill="#000d11" stroke="#000d11"></path><path d="M117 362L0 369L100 484Z" fill="#001215" stroke="#001215"></path><path d="M714 168L773 122L694 112Z" fill="#001618" stroke="#001618"></path><path d="M765 318L774 232L715 262Z" fill="#001215" stroke="#001215"></path><path d="M806 468L792 392L684 408Z" fill="#021f22" stroke="#021f22"></path><path d="M765 318L900 282L774 232Z" fill="#001215" stroke="#001215"></path><path d="M64 232L66 296L185 337Z" fill="#021f22" stroke="#021f22"></path><path d="M617 600L688 600L718 532Z" fill="#001618" stroke="#001618"></path><path d="M718 532L806 468L684 408Z" fill="#042529" stroke="#042529"></path><path d="M686 0L578 0L561 85Z" fill="#032226" stroke="#032226"></path><path d="M100 484L161 600L218 477Z" fill="#05292d" stroke="#05292d"></path><path d="M134 134L64 232L239 168Z" fill="#001c1f" stroke="#001c1f"></path><path d="M774 600L806 468L718 532Z" fill="#042529" stroke="#042529"></path><path d="M900 163L773 122L774 232Z" fill="#042529" stroke="#042529"></path><path d="M774 232L773 122L714 168Z" fill="#062c30" stroke="#062c30"></path><path d="M694 112L686 0L561 85Z" fill="#001215" stroke="#001215"></path><path d="M900 282L765 318L792 392Z" fill="#062c30" stroke="#062c30"></path><path d="M329 0L192 0L215 69Z" fill="#062c30" stroke="#062c30"></path><path d="M215 69L91 0L134 134Z" fill="#062c30" stroke="#062c30"></path><path d="M0 195L0 276L64 232Z" fill="#032226" stroke="#032226"></path><path d="M0 539L96 600L100 484Z" fill="#001618" stroke="#001618"></path><path d="M100 484L96 600L161 600Z" fill="#05292d" stroke="#05292d"></path><path d="M773 122L686 0L694 112Z" fill="#062c30" stroke="#062c30"></path><path d="M66 296L0 369L117 362Z" fill="#000000" stroke="#000000"></path><path d="M0 276L0 369L66 296Z" fill="#042529" stroke="#042529"></path><path d="M688 600L774 600L718 532Z" fill="#05292d" stroke="#05292d"></path><path d="M0 195L64 232L0 124Z" fill="#000000" stroke="#000000"></path><path d="M64 232L0 276L66 296Z" fill="#062c30" stroke="#062c30"></path><path d="M0 124L64 232L134 134Z" fill="#00191c" stroke="#00191c"></path><path d="M0 369L0 539L100 484Z" fill="#032226" stroke="#032226"></path><path d="M900 434L792 392L806 468Z" fill="#021f22" stroke="#021f22"></path><path d="M900 434L900 282L792 392Z" fill="#062c30" stroke="#062c30"></path><path d="M773 122L820 0L686 0Z" fill="#001618" stroke="#001618"></path><path d="M900 466L900 434L806 468Z" fill="#062c30" stroke="#062c30"></path><path d="M192 0L91 0L215 69Z" fill="#00191c" stroke="#00191c"></path><path d="M91 0L0 124L134 134Z" fill="#062c30" stroke="#062c30"></path><path d="M900 600L900 466L806 468Z" fill="#000000" stroke="#000000"></path><path d="M0 539L0 600L96 600Z" fill="#00191c" stroke="#00191c"></path><path d="M900 282L900 163L774 232Z" fill="#001215" stroke="#001215"></path><path d="M900 122L820 0L773 122Z" fill="#021f22" stroke="#021f22"></path><path d="M900 163L900 122L773 122Z" fill="#032226" stroke="#032226"></path><path d="M774 600L900 600L806 468Z" fill="#021f22" stroke="#021f22"></path><path d="M91 0L0 0L0 124Z" fill="#001215" stroke="#001215"></path><path d="M900 122L900 0L820 0Z" fill="#00191c" stroke="#00191c"></path></g></svg>