<svg id="visual" viewBox="0 0 900 600" width="900" height="600" xmlns="http://www.w3.org/2000/svg" xmlns:xlink="http://www.w3.org/1999/xlink" version="1.1"><g fill="#062C30"><path d="M0 -158.6L35.6 -49L150.8 -49L57.6 18.7L93.2 128.3L0 60.6L-93.2 128.3L-57.6 18.7L-150.8 -49L-35.6 -49Z" transform="translate(163 208)"></path><path d="M0 -129.3L29 -40L123 -40L47 15.3L76 104.6L0 49.4L-76 104.6L-47 15.3L-123 -40L-29 -40Z" transform="translate(833 509)"></path><path d="M0 -139.7L31.4 -43.2L132.8 -43.2L50.7 16.5L82.1 113L0 53.4L-82.1 113L-50.7 16.5L-132.8 -43.2L-31.4 -43.2Z" transform="translate(796 42)"></path><path d="M0 -139.7L31.4 -43.2L132.8 -43.2L50.7 16.5L82.1 113L0 53.4L-82.1 113L-50.7 16.5L-132.8 -43.2L-31.4 -43.2Z" transform="translate(12 587)"></path></g></svg>