<svg id="visual" viewBox="0 0 900 600" width="900" height="600" xmlns="http://www.w3.org/2000/svg" xmlns:xlink="http://www.w3.org/1999/xlink" version="1.1"><path d="M0 479L21.5 478.3C43 477.7 86 476.3 128.8 465.5C171.7 454.7 214.3 434.3 257.2 423.7C300 413 343 412 385.8 415.2C428.7 418.3 471.3 425.7 514.2 441.3C557 457 600 481 642.8 472.8C685.7 464.7 728.3 424.3 771.2 407.8C814 391.3 857 398.7 878.5 402.3L900 406L900 601L878.5 601C857 601 814 601 771.2 601C728.3 601 685.7 601 642.8 601C600 601 557 601 514.2 601C471.3 601 428.7 601 385.8 601C343 601 300 601 257.2 601C214.3 601 171.7 601 128.8 601C86 601 43 601 21.5 601L0 601Z" fill="#062C30" stroke-linecap="round" stroke-linejoin="miter"></path></svg>